<mxfile host="app.diagrams.net" agent="Mozilla/5.0 (Windows NT 10.0; Win64; x64) AppleWebKit/537.36 (KHTML, like Gecko) Chrome/127.0.0.0 Safari/537.36" version="24.7.7">
  <diagram name="PÃ¡gina-1" id="EnA2IE_0EmNWeoBkGCOh">
    <mxGraphModel dx="1195" dy="975" grid="1" gridSize="10" guides="1" tooltips="1" connect="1" arrows="1" fold="1" page="0" pageScale="1" pageWidth="827" pageHeight="1169" math="0" shadow="0">
      <root>
        <mxCell id="0" />
        <mxCell id="1" parent="0" />
        <mxCell id="6q34shTgnDWmCKB_raZ_-2" value="Consulta" style="rounded=0;whiteSpace=wrap;html=1;" parent="1" vertex="1">
          <mxGeometry x="430" y="172.5" width="120" height="30" as="geometry" />
        </mxCell>
        <mxCell id="6q34shTgnDWmCKB_raZ_-3" value="Paciente" style="rounded=0;whiteSpace=wrap;html=1;" parent="1" vertex="1">
          <mxGeometry x="430" y="370" width="120" height="30" as="geometry" />
        </mxCell>
        <mxCell id="6q34shTgnDWmCKB_raZ_-4" value="Convenio" style="rounded=0;whiteSpace=wrap;html=1;" parent="1" vertex="1">
          <mxGeometry x="60" y="375" width="120" height="30" as="geometry" />
        </mxCell>
        <mxCell id="6q34shTgnDWmCKB_raZ_-5" value="realiza" style="rhombus;whiteSpace=wrap;html=1;rounded=0;" parent="1" vertex="1">
          <mxGeometry x="270" y="170" width="100" height="35" as="geometry" />
        </mxCell>
        <mxCell id="V7OkiU5_6bdOKGm9sfxt-2" value="Possui" style="rhombus;whiteSpace=wrap;html=1;rounded=0;" parent="1" vertex="1">
          <mxGeometry x="260" y="372.5" width="100" height="35" as="geometry" />
        </mxCell>
        <mxCell id="V7OkiU5_6bdOKGm9sfxt-3" value="Atende" style="rhombus;whiteSpace=wrap;html=1;rounded=0;" parent="1" vertex="1">
          <mxGeometry x="70" y="272.5" width="100" height="30" as="geometry" />
        </mxCell>
        <mxCell id="V7OkiU5_6bdOKGm9sfxt-5" value="" style="endArrow=none;html=1;rounded=0;exitX=1;exitY=0.583;exitDx=0;exitDy=0;entryX=0;entryY=0.5;entryDx=0;entryDy=0;exitPerimeter=0;" parent="1" source="6q34shTgnDWmCKB_raZ_-1" target="6q34shTgnDWmCKB_raZ_-5" edge="1">
          <mxGeometry width="50" height="50" relative="1" as="geometry">
            <mxPoint x="200" y="170" as="sourcePoint" />
            <mxPoint x="270" y="180" as="targetPoint" />
            <Array as="points" />
          </mxGeometry>
        </mxCell>
        <mxCell id="V7OkiU5_6bdOKGm9sfxt-7" value="" style="endArrow=none;html=1;rounded=0;entryX=0.5;entryY=1;entryDx=0;entryDy=0;exitX=0.5;exitY=0;exitDx=0;exitDy=0;" parent="1" source="V7OkiU5_6bdOKGm9sfxt-1" target="6q34shTgnDWmCKB_raZ_-2" edge="1">
          <mxGeometry width="50" height="50" relative="1" as="geometry">
            <mxPoint x="455" y="120" as="sourcePoint" />
            <mxPoint x="525" y="120" as="targetPoint" />
          </mxGeometry>
        </mxCell>
        <mxCell id="V7OkiU5_6bdOKGm9sfxt-8" value="" style="endArrow=none;html=1;rounded=0;exitX=0.5;exitY=0;exitDx=0;exitDy=0;" parent="1" source="V7OkiU5_6bdOKGm9sfxt-1" edge="1">
          <mxGeometry width="50" height="50" relative="1" as="geometry">
            <mxPoint x="489.5" y="242" as="sourcePoint" />
            <mxPoint x="490" y="210" as="targetPoint" />
            <Array as="points" />
          </mxGeometry>
        </mxCell>
        <mxCell id="V7OkiU5_6bdOKGm9sfxt-10" value="" style="endArrow=none;html=1;rounded=0;exitX=1;exitY=0.5;exitDx=0;exitDy=0;" parent="1" source="6q34shTgnDWmCKB_raZ_-4" edge="1">
          <mxGeometry width="50" height="50" relative="1" as="geometry">
            <mxPoint x="190" y="277" as="sourcePoint" />
            <mxPoint x="260" y="390" as="targetPoint" />
            <Array as="points" />
          </mxGeometry>
        </mxCell>
        <mxCell id="V7OkiU5_6bdOKGm9sfxt-11" value="" style="endArrow=none;html=1;rounded=0;exitX=0.25;exitY=0;exitDx=0;exitDy=0;" parent="1" source="6q34shTgnDWmCKB_raZ_-1" edge="1">
          <mxGeometry width="50" height="50" relative="1" as="geometry">
            <mxPoint x="120" y="160" as="sourcePoint" />
            <mxPoint x="100" y="20" as="targetPoint" />
            <Array as="points">
              <mxPoint x="100" y="80" />
            </Array>
          </mxGeometry>
        </mxCell>
        <mxCell id="V7OkiU5_6bdOKGm9sfxt-29" value="" style="endArrow=none;html=1;rounded=0;entryX=0.419;entryY=1.117;entryDx=0;entryDy=0;entryPerimeter=0;" parent="1" target="6q34shTgnDWmCKB_raZ_-1" edge="1">
          <mxGeometry width="50" height="50" relative="1" as="geometry">
            <mxPoint x="120" y="270" as="sourcePoint" />
            <mxPoint x="130" y="200" as="targetPoint" />
            <Array as="points" />
          </mxGeometry>
        </mxCell>
        <mxCell id="6q34shTgnDWmCKB_raZ_-1" value="Medico" style="rounded=0;whiteSpace=wrap;html=1;" parent="1" vertex="1">
          <mxGeometry x="70" y="170" width="120" height="30" as="geometry" />
        </mxCell>
        <mxCell id="V7OkiU5_6bdOKGm9sfxt-30" value="" style="endArrow=none;html=1;rounded=0;" parent="1" edge="1">
          <mxGeometry width="50" height="50" relative="1" as="geometry">
            <mxPoint x="143.1430466182295" y="29.64238345442618" as="sourcePoint" />
            <mxPoint x="142.5" y="30" as="targetPoint" />
          </mxGeometry>
        </mxCell>
        <mxCell id="V7OkiU5_6bdOKGm9sfxt-31" value="" style="endArrow=none;html=1;rounded=0;startArrow=oval;startFill=0;" parent="1" edge="1">
          <mxGeometry width="50" height="50" relative="1" as="geometry">
            <mxPoint x="130" y="40" as="sourcePoint" />
            <mxPoint x="100" y="40" as="targetPoint" />
          </mxGeometry>
        </mxCell>
        <mxCell id="V7OkiU5_6bdOKGm9sfxt-43" style="edgeStyle=orthogonalEdgeStyle;rounded=0;orthogonalLoop=1;jettySize=auto;html=1;startArrow=oval;startFill=1;" parent="1" edge="1">
          <mxGeometry relative="1" as="geometry">
            <mxPoint x="145" y="30" as="targetPoint" />
            <mxPoint x="145" y="30" as="sourcePoint" />
          </mxGeometry>
        </mxCell>
        <mxCell id="V7OkiU5_6bdOKGm9sfxt-45" value="" style="endArrow=none;html=1;rounded=0;startArrow=oval;startFill=1;" parent="1" edge="1">
          <mxGeometry width="50" height="50" relative="1" as="geometry">
            <mxPoint x="130" y="20" as="sourcePoint" />
            <mxPoint x="100" y="20" as="targetPoint" />
          </mxGeometry>
        </mxCell>
        <mxCell id="V7OkiU5_6bdOKGm9sfxt-47" value="" style="endArrow=none;html=1;rounded=0;startArrow=oval;startFill=0;" parent="1" edge="1">
          <mxGeometry width="50" height="50" relative="1" as="geometry">
            <mxPoint x="130" y="62.5" as="sourcePoint" />
            <mxPoint x="100" y="62.5" as="targetPoint" />
          </mxGeometry>
        </mxCell>
        <mxCell id="V7OkiU5_6bdOKGm9sfxt-48" value="" style="endArrow=none;html=1;rounded=0;startArrow=oval;startFill=0;" parent="1" edge="1">
          <mxGeometry width="50" height="50" relative="1" as="geometry">
            <mxPoint x="130" y="84" as="sourcePoint" />
            <mxPoint x="100" y="84" as="targetPoint" />
          </mxGeometry>
        </mxCell>
        <mxCell id="V7OkiU5_6bdOKGm9sfxt-50" value="" style="endArrow=none;html=1;rounded=0;startArrow=oval;startFill=0;" parent="1" edge="1">
          <mxGeometry width="50" height="50" relative="1" as="geometry">
            <mxPoint x="130" y="110" as="sourcePoint" />
            <mxPoint x="100" y="110" as="targetPoint" />
          </mxGeometry>
        </mxCell>
        <mxCell id="V7OkiU5_6bdOKGm9sfxt-51" value="" style="endArrow=none;html=1;rounded=0;startArrow=oval;startFill=0;" parent="1" edge="1">
          <mxGeometry width="50" height="50" relative="1" as="geometry">
            <mxPoint x="130" y="140" as="sourcePoint" />
            <mxPoint x="100" y="140" as="targetPoint" />
          </mxGeometry>
        </mxCell>
        <mxCell id="V7OkiU5_6bdOKGm9sfxt-52" value="CRM" style="text;html=1;align=center;verticalAlign=middle;resizable=0;points=[];autosize=1;strokeColor=none;fillColor=none;" parent="1" vertex="1">
          <mxGeometry x="130" y="10" width="50" height="30" as="geometry" />
        </mxCell>
        <mxCell id="V7OkiU5_6bdOKGm9sfxt-53" value="Especialidade" style="text;html=1;align=center;verticalAlign=middle;resizable=0;points=[];autosize=1;strokeColor=none;fillColor=none;" parent="1" vertex="1">
          <mxGeometry x="126" y="27.5" width="100" height="30" as="geometry" />
        </mxCell>
        <mxCell id="V7OkiU5_6bdOKGm9sfxt-58" value="Nome" style="text;html=1;align=center;verticalAlign=middle;resizable=0;points=[];autosize=1;strokeColor=none;fillColor=none;" parent="1" vertex="1">
          <mxGeometry x="125" y="48" width="60" height="30" as="geometry" />
        </mxCell>
        <mxCell id="V7OkiU5_6bdOKGm9sfxt-59" value="Telefone" style="text;html=1;align=center;verticalAlign=middle;resizable=0;points=[];autosize=1;strokeColor=none;fillColor=none;" parent="1" vertex="1">
          <mxGeometry x="125" y="70" width="70" height="30" as="geometry" />
        </mxCell>
        <mxCell id="V7OkiU5_6bdOKGm9sfxt-60" value="Email" style="text;html=1;align=center;verticalAlign=middle;resizable=0;points=[];autosize=1;strokeColor=none;fillColor=none;" parent="1" vertex="1">
          <mxGeometry x="130" y="96" width="50" height="30" as="geometry" />
        </mxCell>
        <mxCell id="V7OkiU5_6bdOKGm9sfxt-61" value="Endereco" style="text;html=1;align=center;verticalAlign=middle;resizable=0;points=[];autosize=1;strokeColor=none;fillColor=none;" parent="1" vertex="1">
          <mxGeometry x="129" y="126.5" width="70" height="30" as="geometry" />
        </mxCell>
        <mxCell id="V7OkiU5_6bdOKGm9sfxt-66" value="" style="endArrow=none;html=1;rounded=0;" parent="1" edge="1">
          <mxGeometry width="50" height="50" relative="1" as="geometry">
            <mxPoint x="190" y="142.5" as="sourcePoint" />
            <mxPoint x="250" y="143" as="targetPoint" />
          </mxGeometry>
        </mxCell>
        <mxCell id="V7OkiU5_6bdOKGm9sfxt-72" value="" style="endArrow=none;html=1;rounded=0;" parent="1" edge="1">
          <mxGeometry width="50" height="50" relative="1" as="geometry">
            <mxPoint x="250" y="143.13" as="sourcePoint" />
            <mxPoint x="250" as="targetPoint" />
          </mxGeometry>
        </mxCell>
        <mxCell id="V7OkiU5_6bdOKGm9sfxt-74" value="" style="endArrow=none;html=1;rounded=0;startArrow=oval;startFill=0;" parent="1" edge="1">
          <mxGeometry width="50" height="50" relative="1" as="geometry">
            <mxPoint x="280" as="sourcePoint" />
            <mxPoint x="250" as="targetPoint" />
          </mxGeometry>
        </mxCell>
        <mxCell id="V7OkiU5_6bdOKGm9sfxt-75" value="Rua" style="text;html=1;align=center;verticalAlign=middle;resizable=0;points=[];autosize=1;strokeColor=none;fillColor=none;" parent="1" vertex="1">
          <mxGeometry x="275" y="-15" width="50" height="30" as="geometry" />
        </mxCell>
        <mxCell id="V7OkiU5_6bdOKGm9sfxt-76" value="" style="endArrow=none;html=1;rounded=0;startArrow=oval;startFill=0;" parent="1" edge="1">
          <mxGeometry width="50" height="50" relative="1" as="geometry">
            <mxPoint x="280" y="24.5" as="sourcePoint" />
            <mxPoint x="250" y="24.5" as="targetPoint" />
          </mxGeometry>
        </mxCell>
        <mxCell id="V7OkiU5_6bdOKGm9sfxt-77" value="Numero" style="text;html=1;align=center;verticalAlign=middle;resizable=0;points=[];autosize=1;strokeColor=none;fillColor=none;" parent="1" vertex="1">
          <mxGeometry x="275" y="10" width="70" height="30" as="geometry" />
        </mxCell>
        <mxCell id="V7OkiU5_6bdOKGm9sfxt-79" value="" style="endArrow=none;html=1;rounded=0;startArrow=oval;startFill=0;" parent="1" edge="1">
          <mxGeometry width="50" height="50" relative="1" as="geometry">
            <mxPoint x="280" y="48" as="sourcePoint" />
            <mxPoint x="250" y="48" as="targetPoint" />
          </mxGeometry>
        </mxCell>
        <mxCell id="V7OkiU5_6bdOKGm9sfxt-80" value="Complemento" style="text;html=1;align=center;verticalAlign=middle;resizable=0;points=[];autosize=1;strokeColor=none;fillColor=none;" parent="1" vertex="1">
          <mxGeometry x="273" y="32.5" width="100" height="30" as="geometry" />
        </mxCell>
        <mxCell id="V7OkiU5_6bdOKGm9sfxt-83" value="" style="endArrow=none;html=1;rounded=0;startArrow=oval;startFill=0;" parent="1" edge="1">
          <mxGeometry width="50" height="50" relative="1" as="geometry">
            <mxPoint x="280" y="70" as="sourcePoint" />
            <mxPoint x="250" y="70" as="targetPoint" />
          </mxGeometry>
        </mxCell>
        <mxCell id="V7OkiU5_6bdOKGm9sfxt-85" value="Bairro" style="text;html=1;align=center;verticalAlign=middle;resizable=0;points=[];autosize=1;strokeColor=none;fillColor=none;" parent="1" vertex="1">
          <mxGeometry x="274" y="54.5" width="60" height="30" as="geometry" />
        </mxCell>
        <mxCell id="V7OkiU5_6bdOKGm9sfxt-87" value="" style="endArrow=none;html=1;rounded=0;startArrow=oval;startFill=0;" parent="1" edge="1">
          <mxGeometry width="50" height="50" relative="1" as="geometry">
            <mxPoint x="280" y="92.5" as="sourcePoint" />
            <mxPoint x="250" y="92.5" as="targetPoint" />
          </mxGeometry>
        </mxCell>
        <mxCell id="V7OkiU5_6bdOKGm9sfxt-88" value="Cep" style="text;html=1;align=center;verticalAlign=middle;resizable=0;points=[];autosize=1;strokeColor=none;fillColor=none;" parent="1" vertex="1">
          <mxGeometry x="275" y="78" width="50" height="30" as="geometry" />
        </mxCell>
        <mxCell id="V7OkiU5_6bdOKGm9sfxt-89" value="" style="endArrow=none;html=1;rounded=0;startArrow=oval;startFill=0;" parent="1" edge="1">
          <mxGeometry width="50" height="50" relative="1" as="geometry">
            <mxPoint x="280" y="120" as="sourcePoint" />
            <mxPoint x="250" y="120" as="targetPoint" />
          </mxGeometry>
        </mxCell>
        <mxCell id="V7OkiU5_6bdOKGm9sfxt-90" value="Cidade" style="text;html=1;align=center;verticalAlign=middle;resizable=0;points=[];autosize=1;strokeColor=none;fillColor=none;" parent="1" vertex="1">
          <mxGeometry x="275" y="106" width="60" height="30" as="geometry" />
        </mxCell>
        <mxCell id="V7OkiU5_6bdOKGm9sfxt-92" value="" style="endArrow=none;html=1;rounded=0;startArrow=oval;startFill=0;" parent="1" edge="1">
          <mxGeometry width="50" height="50" relative="1" as="geometry">
            <mxPoint x="280" y="141" as="sourcePoint" />
            <mxPoint x="250" y="141" as="targetPoint" />
          </mxGeometry>
        </mxCell>
        <mxCell id="V7OkiU5_6bdOKGm9sfxt-93" value="Estado" style="text;html=1;align=center;verticalAlign=middle;resizable=0;points=[];autosize=1;strokeColor=none;fillColor=none;" parent="1" vertex="1">
          <mxGeometry x="275" y="127.5" width="60" height="30" as="geometry" />
        </mxCell>
        <mxCell id="V7OkiU5_6bdOKGm9sfxt-94" value="" style="endArrow=none;html=1;rounded=0;exitX=1;exitY=0.5;exitDx=0;exitDy=0;" parent="1" edge="1">
          <mxGeometry width="50" height="50" relative="1" as="geometry">
            <mxPoint x="370" y="187" as="sourcePoint" />
            <mxPoint x="430" y="187.5" as="targetPoint" />
            <Array as="points" />
          </mxGeometry>
        </mxCell>
        <mxCell id="V7OkiU5_6bdOKGm9sfxt-95" style="edgeStyle=orthogonalEdgeStyle;rounded=0;orthogonalLoop=1;jettySize=auto;html=1;exitX=0.5;exitY=1;exitDx=0;exitDy=0;" parent="1" source="6q34shTgnDWmCKB_raZ_-3" target="6q34shTgnDWmCKB_raZ_-3" edge="1">
          <mxGeometry relative="1" as="geometry" />
        </mxCell>
        <mxCell id="V7OkiU5_6bdOKGm9sfxt-96" value="" style="endArrow=none;html=1;rounded=0;exitX=0.5;exitY=0;exitDx=0;exitDy=0;" parent="1" source="6q34shTgnDWmCKB_raZ_-3" target="V7OkiU5_6bdOKGm9sfxt-1" edge="1">
          <mxGeometry width="50" height="50" relative="1" as="geometry">
            <mxPoint x="490" y="370" as="sourcePoint" />
            <mxPoint x="490" y="190" as="targetPoint" />
            <Array as="points">
              <mxPoint x="490" y="210" />
            </Array>
          </mxGeometry>
        </mxCell>
        <mxCell id="V7OkiU5_6bdOKGm9sfxt-1" value="agendada" style="rhombus;whiteSpace=wrap;html=1;rounded=0;" parent="1" vertex="1">
          <mxGeometry x="440" y="270" width="100" height="35" as="geometry" />
        </mxCell>
        <mxCell id="V7OkiU5_6bdOKGm9sfxt-97" value="" style="endArrow=none;html=1;rounded=0;" parent="1" edge="1">
          <mxGeometry width="50" height="50" relative="1" as="geometry">
            <mxPoint x="480" y="170" as="sourcePoint" />
            <mxPoint x="480" y="80" as="targetPoint" />
          </mxGeometry>
        </mxCell>
        <mxCell id="V7OkiU5_6bdOKGm9sfxt-98" value="" style="endArrow=none;html=1;rounded=0;startArrow=oval;startFill=1;" parent="1" edge="1">
          <mxGeometry width="50" height="50" relative="1" as="geometry">
            <mxPoint x="510" y="83.5" as="sourcePoint" />
            <mxPoint x="480" y="83.5" as="targetPoint" />
          </mxGeometry>
        </mxCell>
        <mxCell id="V7OkiU5_6bdOKGm9sfxt-100" value="" style="endArrow=none;html=1;rounded=0;startArrow=oval;startFill=0;" parent="1" edge="1">
          <mxGeometry width="50" height="50" relative="1" as="geometry">
            <mxPoint x="510" y="110.5" as="sourcePoint" />
            <mxPoint x="480" y="110.5" as="targetPoint" />
          </mxGeometry>
        </mxCell>
        <mxCell id="V7OkiU5_6bdOKGm9sfxt-101" value="" style="endArrow=none;html=1;rounded=0;startArrow=oval;startFill=0;" parent="1" edge="1">
          <mxGeometry width="50" height="50" relative="1" as="geometry">
            <mxPoint x="510" y="136" as="sourcePoint" />
            <mxPoint x="480" y="136" as="targetPoint" />
          </mxGeometry>
        </mxCell>
        <mxCell id="V7OkiU5_6bdOKGm9sfxt-102" value="Id_consulta" style="text;html=1;align=center;verticalAlign=middle;resizable=0;points=[];autosize=1;strokeColor=none;fillColor=none;" parent="1" vertex="1">
          <mxGeometry x="513" y="68" width="80" height="30" as="geometry" />
        </mxCell>
        <mxCell id="V7OkiU5_6bdOKGm9sfxt-103" value="Data" style="text;html=1;align=center;verticalAlign=middle;resizable=0;points=[];autosize=1;strokeColor=none;fillColor=none;" parent="1" vertex="1">
          <mxGeometry x="505" y="96" width="50" height="30" as="geometry" />
        </mxCell>
        <mxCell id="V7OkiU5_6bdOKGm9sfxt-104" value="Horario" style="text;html=1;align=center;verticalAlign=middle;resizable=0;points=[];autosize=1;strokeColor=none;fillColor=none;" parent="1" vertex="1">
          <mxGeometry x="507" y="122" width="60" height="30" as="geometry" />
        </mxCell>
        <mxCell id="V7OkiU5_6bdOKGm9sfxt-105" value="" style="endArrow=none;html=1;rounded=0;" parent="1" edge="1">
          <mxGeometry width="50" height="50" relative="1" as="geometry">
            <mxPoint x="440" y="520" as="sourcePoint" />
            <mxPoint x="440" y="403" as="targetPoint" />
          </mxGeometry>
        </mxCell>
        <mxCell id="V7OkiU5_6bdOKGm9sfxt-106" value="" style="endArrow=none;html=1;rounded=0;startArrow=oval;startFill=1;" parent="1" edge="1">
          <mxGeometry width="50" height="50" relative="1" as="geometry">
            <mxPoint x="470" y="423.17" as="sourcePoint" />
            <mxPoint x="440" y="423.17" as="targetPoint" />
          </mxGeometry>
        </mxCell>
        <mxCell id="V7OkiU5_6bdOKGm9sfxt-107" value="CPF" style="text;html=1;align=center;verticalAlign=middle;resizable=0;points=[];autosize=1;strokeColor=none;fillColor=none;" parent="1" vertex="1">
          <mxGeometry x="466" y="407.5" width="50" height="30" as="geometry" />
        </mxCell>
        <mxCell id="V7OkiU5_6bdOKGm9sfxt-108" value="" style="endArrow=none;html=1;rounded=0;startArrow=oval;startFill=0;" parent="1" edge="1">
          <mxGeometry width="50" height="50" relative="1" as="geometry">
            <mxPoint x="470" y="460" as="sourcePoint" />
            <mxPoint x="440" y="460" as="targetPoint" />
          </mxGeometry>
        </mxCell>
        <mxCell id="V7OkiU5_6bdOKGm9sfxt-109" value="Nome" style="text;html=1;align=center;verticalAlign=middle;resizable=0;points=[];autosize=1;strokeColor=none;fillColor=none;" parent="1" vertex="1">
          <mxGeometry x="462" y="445" width="60" height="30" as="geometry" />
        </mxCell>
        <mxCell id="V7OkiU5_6bdOKGm9sfxt-113" value="" style="endArrow=none;html=1;rounded=0;startArrow=oval;startFill=0;" parent="1" edge="1">
          <mxGeometry width="50" height="50" relative="1" as="geometry">
            <mxPoint x="470" y="480" as="sourcePoint" />
            <mxPoint x="440" y="480" as="targetPoint" />
          </mxGeometry>
        </mxCell>
        <mxCell id="V7OkiU5_6bdOKGm9sfxt-114" value="Telefone" style="text;html=1;align=center;verticalAlign=middle;resizable=0;points=[];autosize=1;strokeColor=none;fillColor=none;" parent="1" vertex="1">
          <mxGeometry x="463" y="466" width="70" height="30" as="geometry" />
        </mxCell>
        <mxCell id="V7OkiU5_6bdOKGm9sfxt-115" value="" style="endArrow=none;html=1;rounded=0;startArrow=oval;startFill=0;" parent="1" edge="1">
          <mxGeometry width="50" height="50" relative="1" as="geometry">
            <mxPoint x="470" y="500" as="sourcePoint" />
            <mxPoint x="440" y="500" as="targetPoint" />
          </mxGeometry>
        </mxCell>
        <mxCell id="V7OkiU5_6bdOKGm9sfxt-116" value="Email" style="text;html=1;align=center;verticalAlign=middle;resizable=0;points=[];autosize=1;strokeColor=none;fillColor=none;" parent="1" vertex="1">
          <mxGeometry x="466" y="485" width="50" height="30" as="geometry" />
        </mxCell>
        <mxCell id="V7OkiU5_6bdOKGm9sfxt-117" value="" style="endArrow=none;html=1;rounded=0;startArrow=oval;startFill=0;" parent="1" edge="1">
          <mxGeometry width="50" height="50" relative="1" as="geometry">
            <mxPoint x="470" y="520" as="sourcePoint" />
            <mxPoint x="440" y="520" as="targetPoint" />
          </mxGeometry>
        </mxCell>
        <mxCell id="V7OkiU5_6bdOKGm9sfxt-118" value="Endereco" style="text;html=1;align=center;verticalAlign=middle;resizable=0;points=[];autosize=1;strokeColor=none;fillColor=none;" parent="1" vertex="1">
          <mxGeometry x="466" y="506" width="70" height="30" as="geometry" />
        </mxCell>
        <mxCell id="V7OkiU5_6bdOKGm9sfxt-125" value="" style="endArrow=none;html=1;rounded=0;" parent="1" edge="1">
          <mxGeometry width="50" height="50" relative="1" as="geometry">
            <mxPoint x="535" y="520.5" as="sourcePoint" />
            <mxPoint x="580" y="520" as="targetPoint" />
          </mxGeometry>
        </mxCell>
        <mxCell id="V7OkiU5_6bdOKGm9sfxt-126" value="" style="endArrow=none;html=1;rounded=0;" parent="1" edge="1">
          <mxGeometry width="50" height="50" relative="1" as="geometry">
            <mxPoint x="580" y="520" as="sourcePoint" />
            <mxPoint x="580" y="379" as="targetPoint" />
          </mxGeometry>
        </mxCell>
        <mxCell id="V7OkiU5_6bdOKGm9sfxt-127" value="" style="endArrow=none;html=1;rounded=0;startArrow=oval;startFill=0;" parent="1" edge="1">
          <mxGeometry width="50" height="50" relative="1" as="geometry">
            <mxPoint x="610" y="380" as="sourcePoint" />
            <mxPoint x="580" y="380" as="targetPoint" />
          </mxGeometry>
        </mxCell>
        <mxCell id="V7OkiU5_6bdOKGm9sfxt-128" value="Rua" style="text;html=1;align=center;verticalAlign=middle;resizable=0;points=[];autosize=1;strokeColor=none;fillColor=none;" parent="1" vertex="1">
          <mxGeometry x="603" y="366" width="50" height="30" as="geometry" />
        </mxCell>
        <mxCell id="V7OkiU5_6bdOKGm9sfxt-129" value="" style="endArrow=none;html=1;rounded=0;startArrow=oval;startFill=0;" parent="1" edge="1">
          <mxGeometry width="50" height="50" relative="1" as="geometry">
            <mxPoint x="610" y="400" as="sourcePoint" />
            <mxPoint x="580" y="400" as="targetPoint" />
          </mxGeometry>
        </mxCell>
        <mxCell id="V7OkiU5_6bdOKGm9sfxt-130" value="Complemento" style="text;html=1;align=center;verticalAlign=middle;resizable=0;points=[];autosize=1;strokeColor=none;fillColor=none;" parent="1" vertex="1">
          <mxGeometry x="603" y="386" width="100" height="30" as="geometry" />
        </mxCell>
        <mxCell id="V7OkiU5_6bdOKGm9sfxt-132" value="" style="endArrow=none;html=1;rounded=0;startArrow=oval;startFill=0;" parent="1" edge="1">
          <mxGeometry width="50" height="50" relative="1" as="geometry">
            <mxPoint x="610" y="425" as="sourcePoint" />
            <mxPoint x="580" y="425" as="targetPoint" />
          </mxGeometry>
        </mxCell>
        <mxCell id="V7OkiU5_6bdOKGm9sfxt-133" value="Bairro" style="text;html=1;align=center;verticalAlign=middle;resizable=0;points=[];autosize=1;strokeColor=none;fillColor=none;" parent="1" vertex="1">
          <mxGeometry x="603" y="410" width="60" height="30" as="geometry" />
        </mxCell>
        <mxCell id="V7OkiU5_6bdOKGm9sfxt-134" value="" style="endArrow=none;html=1;rounded=0;startArrow=oval;startFill=0;" parent="1" edge="1">
          <mxGeometry width="50" height="50" relative="1" as="geometry">
            <mxPoint x="610" y="450.5" as="sourcePoint" />
            <mxPoint x="580" y="450.5" as="targetPoint" />
          </mxGeometry>
        </mxCell>
        <mxCell id="V7OkiU5_6bdOKGm9sfxt-135" value="Cep" style="text;html=1;align=center;verticalAlign=middle;resizable=0;points=[];autosize=1;strokeColor=none;fillColor=none;" parent="1" vertex="1">
          <mxGeometry x="605" y="436" width="50" height="30" as="geometry" />
        </mxCell>
        <mxCell id="V7OkiU5_6bdOKGm9sfxt-136" value="" style="endArrow=none;html=1;rounded=0;startArrow=oval;startFill=0;" parent="1" edge="1">
          <mxGeometry width="50" height="50" relative="1" as="geometry">
            <mxPoint x="610" y="475" as="sourcePoint" />
            <mxPoint x="580" y="475" as="targetPoint" />
          </mxGeometry>
        </mxCell>
        <mxCell id="V7OkiU5_6bdOKGm9sfxt-137" value="" style="endArrow=none;html=1;rounded=0;startArrow=oval;startFill=0;" parent="1" edge="1">
          <mxGeometry width="50" height="50" relative="1" as="geometry">
            <mxPoint x="610" y="499.5" as="sourcePoint" />
            <mxPoint x="580" y="499.5" as="targetPoint" />
          </mxGeometry>
        </mxCell>
        <mxCell id="V7OkiU5_6bdOKGm9sfxt-138" value="Cidade" style="text;html=1;align=center;verticalAlign=middle;resizable=0;points=[];autosize=1;strokeColor=none;fillColor=none;" parent="1" vertex="1">
          <mxGeometry x="606" y="461" width="60" height="30" as="geometry" />
        </mxCell>
        <mxCell id="V7OkiU5_6bdOKGm9sfxt-139" value="Estado" style="text;html=1;align=center;verticalAlign=middle;resizable=0;points=[];autosize=1;strokeColor=none;fillColor=none;" parent="1" vertex="1">
          <mxGeometry x="606" y="485" width="60" height="30" as="geometry" />
        </mxCell>
        <mxCell id="V7OkiU5_6bdOKGm9sfxt-140" value="" style="endArrow=none;html=1;rounded=0;exitX=1;exitY=0.5;exitDx=0;exitDy=0;" parent="1" edge="1">
          <mxGeometry width="50" height="50" relative="1" as="geometry">
            <mxPoint x="360" y="389.41" as="sourcePoint" />
            <mxPoint x="430" y="390" as="targetPoint" />
            <Array as="points" />
          </mxGeometry>
        </mxCell>
        <mxCell id="V7OkiU5_6bdOKGm9sfxt-141" value="" style="endArrow=none;html=1;rounded=0;" parent="1" edge="1">
          <mxGeometry width="50" height="50" relative="1" as="geometry">
            <mxPoint x="80" y="520" as="sourcePoint" />
            <mxPoint x="80" y="405" as="targetPoint" />
          </mxGeometry>
        </mxCell>
        <mxCell id="V7OkiU5_6bdOKGm9sfxt-143" value="" style="endArrow=none;html=1;rounded=0;startArrow=oval;startFill=1;" parent="1" edge="1">
          <mxGeometry width="50" height="50" relative="1" as="geometry">
            <mxPoint x="110" y="439.40999999999997" as="sourcePoint" />
            <mxPoint x="80" y="439.40999999999997" as="targetPoint" />
          </mxGeometry>
        </mxCell>
        <mxCell id="V7OkiU5_6bdOKGm9sfxt-144" value="" style="endArrow=none;html=1;rounded=0;startArrow=oval;startFill=0;" parent="1" edge="1">
          <mxGeometry width="50" height="50" relative="1" as="geometry">
            <mxPoint x="110" y="459.40999999999997" as="sourcePoint" />
            <mxPoint x="80" y="459.40999999999997" as="targetPoint" />
          </mxGeometry>
        </mxCell>
        <mxCell id="V7OkiU5_6bdOKGm9sfxt-145" value="" style="endArrow=none;html=1;rounded=0;startArrow=oval;startFill=0;" parent="1" edge="1">
          <mxGeometry width="50" height="50" relative="1" as="geometry">
            <mxPoint x="110" y="480.40999999999997" as="sourcePoint" />
            <mxPoint x="80" y="480.40999999999997" as="targetPoint" />
          </mxGeometry>
        </mxCell>
        <mxCell id="V7OkiU5_6bdOKGm9sfxt-146" value="" style="endArrow=none;html=1;rounded=0;startArrow=oval;startFill=0;" parent="1" edge="1">
          <mxGeometry width="50" height="50" relative="1" as="geometry">
            <mxPoint x="110" y="499.40999999999997" as="sourcePoint" />
            <mxPoint x="80" y="499.40999999999997" as="targetPoint" />
          </mxGeometry>
        </mxCell>
        <mxCell id="V7OkiU5_6bdOKGm9sfxt-147" value="" style="endArrow=none;html=1;rounded=0;startArrow=oval;startFill=0;" parent="1" edge="1">
          <mxGeometry width="50" height="50" relative="1" as="geometry">
            <mxPoint x="110" y="520.41" as="sourcePoint" />
            <mxPoint x="80" y="520.41" as="targetPoint" />
          </mxGeometry>
        </mxCell>
        <mxCell id="V7OkiU5_6bdOKGm9sfxt-148" value="Id_convenio" style="text;html=1;align=center;verticalAlign=middle;resizable=0;points=[];autosize=1;strokeColor=none;fillColor=none;" parent="1" vertex="1">
          <mxGeometry x="111" y="424" width="90" height="30" as="geometry" />
        </mxCell>
        <mxCell id="V7OkiU5_6bdOKGm9sfxt-149" value="Empresa" style="text;html=1;align=center;verticalAlign=middle;resizable=0;points=[];autosize=1;strokeColor=none;fillColor=none;" parent="1" vertex="1">
          <mxGeometry x="107" y="445" width="70" height="30" as="geometry" />
        </mxCell>
        <mxCell id="V7OkiU5_6bdOKGm9sfxt-150" value="Tipo" style="text;html=1;align=center;verticalAlign=middle;resizable=0;points=[];autosize=1;strokeColor=none;fillColor=none;" parent="1" vertex="1">
          <mxGeometry x="103" y="466" width="50" height="30" as="geometry" />
        </mxCell>
        <mxCell id="V7OkiU5_6bdOKGm9sfxt-151" value="Vencimento" style="text;html=1;align=center;verticalAlign=middle;resizable=0;points=[];autosize=1;strokeColor=none;fillColor=none;" parent="1" vertex="1">
          <mxGeometry x="102" y="485" width="90" height="30" as="geometry" />
        </mxCell>
        <mxCell id="V7OkiU5_6bdOKGm9sfxt-152" value="Percentual de coparticipacao" style="text;html=1;align=center;verticalAlign=middle;resizable=0;points=[];autosize=1;strokeColor=none;fillColor=none;" parent="1" vertex="1">
          <mxGeometry x="103" y="506" width="180" height="30" as="geometry" />
        </mxCell>
        <mxCell id="V7OkiU5_6bdOKGm9sfxt-153" value="" style="endArrow=none;html=1;rounded=0;entryX=0.5;entryY=1;entryDx=0;entryDy=0;" parent="1" target="V7OkiU5_6bdOKGm9sfxt-3" edge="1">
          <mxGeometry width="50" height="50" relative="1" as="geometry">
            <mxPoint x="120" y="370" as="sourcePoint" />
            <mxPoint x="167" y="320" as="targetPoint" />
          </mxGeometry>
        </mxCell>
        <mxCell id="V7OkiU5_6bdOKGm9sfxt-154" value="(0,n)" style="text;html=1;align=center;verticalAlign=middle;resizable=0;points=[];autosize=1;strokeColor=none;fillColor=none;" parent="1" vertex="1">
          <mxGeometry x="199" y="164" width="50" height="30" as="geometry" />
        </mxCell>
        <mxCell id="V7OkiU5_6bdOKGm9sfxt-155" value="(n,0)" style="text;html=1;align=center;verticalAlign=middle;resizable=0;points=[];autosize=1;strokeColor=none;fillColor=none;" parent="1" vertex="1">
          <mxGeometry x="380" y="164" width="50" height="30" as="geometry" />
        </mxCell>
        <mxCell id="V7OkiU5_6bdOKGm9sfxt-156" value="(Pk)" style="text;html=1;align=center;verticalAlign=middle;resizable=0;points=[];autosize=1;strokeColor=none;fillColor=none;" parent="1" vertex="1">
          <mxGeometry x="158" y="9" width="50" height="30" as="geometry" />
        </mxCell>
        <mxCell id="V7OkiU5_6bdOKGm9sfxt-157" value="(Pk)" style="text;html=1;align=center;verticalAlign=middle;resizable=0;points=[];autosize=1;strokeColor=none;fillColor=none;" parent="1" vertex="1">
          <mxGeometry x="569" y="68" width="50" height="30" as="geometry" />
        </mxCell>
        <mxCell id="V7OkiU5_6bdOKGm9sfxt-158" value="(Pk)" style="text;html=1;align=center;verticalAlign=middle;resizable=0;points=[];autosize=1;strokeColor=none;fillColor=none;" parent="1" vertex="1">
          <mxGeometry x="493" y="407" width="50" height="30" as="geometry" />
        </mxCell>
        <mxCell id="V7OkiU5_6bdOKGm9sfxt-159" value="(Pk)" style="text;html=1;align=center;verticalAlign=middle;resizable=0;points=[];autosize=1;strokeColor=none;fillColor=none;" parent="1" vertex="1">
          <mxGeometry x="176" y="424" width="50" height="30" as="geometry" />
        </mxCell>
        <mxCell id="Ie03HKGXqff3tl3apJhO-1" value="(0,n)" style="text;html=1;align=center;verticalAlign=middle;resizable=0;points=[];autosize=1;strokeColor=none;fillColor=none;" parent="1" vertex="1">
          <mxGeometry x="495" y="218" width="50" height="30" as="geometry" />
        </mxCell>
        <mxCell id="Ie03HKGXqff3tl3apJhO-3" value="(0&lt;span style=&quot;background-color: initial;&quot;&gt;,n)&lt;/span&gt;" style="text;html=1;align=center;verticalAlign=middle;resizable=0;points=[];autosize=1;strokeColor=none;fillColor=none;" parent="1" vertex="1">
          <mxGeometry x="365" y="348" width="50" height="30" as="geometry" />
        </mxCell>
        <mxCell id="Z-KORPXH8-hokRQiBN_Q-1" value="(0,n)" style="text;html=1;align=center;verticalAlign=middle;resizable=0;points=[];autosize=1;strokeColor=none;fillColor=none;" vertex="1" parent="1">
          <mxGeometry x="492" y="310" width="50" height="30" as="geometry" />
        </mxCell>
        <mxCell id="Z-KORPXH8-hokRQiBN_Q-2" value="(0,n)" style="text;html=1;align=center;verticalAlign=middle;resizable=0;points=[];autosize=1;strokeColor=none;fillColor=none;" vertex="1" parent="1">
          <mxGeometry x="115" y="218" width="50" height="30" as="geometry" />
        </mxCell>
        <mxCell id="Z-KORPXH8-hokRQiBN_Q-3" value="(0,n)" style="text;html=1;align=center;verticalAlign=middle;resizable=0;points=[];autosize=1;strokeColor=none;fillColor=none;" vertex="1" parent="1">
          <mxGeometry x="115" y="318" width="50" height="30" as="geometry" />
        </mxCell>
        <mxCell id="Z-KORPXH8-hokRQiBN_Q-4" value="(0,n)" style="text;html=1;align=center;verticalAlign=middle;resizable=0;points=[];autosize=1;strokeColor=none;fillColor=none;" vertex="1" parent="1">
          <mxGeometry x="200" y="352" width="50" height="30" as="geometry" />
        </mxCell>
        <mxCell id="Z-KORPXH8-hokRQiBN_Q-5" value="" style="endArrow=none;html=1;rounded=0;startArrow=oval;startFill=0;" edge="1" parent="1">
          <mxGeometry width="50" height="50" relative="1" as="geometry">
            <mxPoint x="507" y="156.5" as="sourcePoint" />
            <mxPoint x="477" y="156.5" as="targetPoint" />
          </mxGeometry>
        </mxCell>
        <mxCell id="Z-KORPXH8-hokRQiBN_Q-6" value="CRM (FK)" style="text;html=1;align=center;verticalAlign=middle;resizable=0;points=[];autosize=1;strokeColor=none;fillColor=none;" vertex="1" parent="1">
          <mxGeometry x="500" y="140" width="80" height="30" as="geometry" />
        </mxCell>
        <mxCell id="Z-KORPXH8-hokRQiBN_Q-7" value="" style="endArrow=none;html=1;rounded=0;startArrow=oval;startFill=0;" edge="1" parent="1">
          <mxGeometry width="50" height="50" relative="1" as="geometry">
            <mxPoint x="470" y="444.17" as="sourcePoint" />
            <mxPoint x="440" y="444.17" as="targetPoint" />
          </mxGeometry>
        </mxCell>
        <mxCell id="Z-KORPXH8-hokRQiBN_Q-8" value="Id_convenio(FK)" style="text;html=1;align=center;verticalAlign=middle;resizable=0;points=[];autosize=1;strokeColor=none;fillColor=none;" vertex="1" parent="1">
          <mxGeometry x="464" y="428" width="110" height="30" as="geometry" />
        </mxCell>
      </root>
    </mxGraphModel>
  </diagram>
</mxfile>
